<?xml version="1.0" encoding="UTF-8" standalone="no"?>
<!-- Created with Inkscape (http://www.inkscape.org/) -->

<svg
   width="28"
   height="28"
   viewBox="0 0 7.4083334 7.4083333"
   version="1.1"
   id="svg5"
   inkscape:version="1.3.2 (091e20e, 2023-11-25, custom)"
   sodipodi:docname="voicemeeter_category.svg"
   xml:space="preserve"
   inkscape:export-filename="voicemeeter_category_2.png"
   inkscape:export-xdpi="96"
   inkscape:export-ydpi="96"
   xmlns:inkscape="http://www.inkscape.org/namespaces/inkscape"
   xmlns:sodipodi="http://sodipodi.sourceforge.net/DTD/sodipodi-0.dtd"
   xmlns="http://www.w3.org/2000/svg"
   xmlns:svg="http://www.w3.org/2000/svg"><sodipodi:namedview
     id="namedview7"
     pagecolor="#000000"
     bordercolor="#ffffff"
     borderopacity="1"
     inkscape:pageshadow="0"
     inkscape:pageopacity="0"
     inkscape:pagecheckerboard="true"
     inkscape:document-units="mm"
     showgrid="true"
     fit-margin-top="0"
     fit-margin-left="0"
     fit-margin-right="0"
     fit-margin-bottom="0"
     units="px"
     inkscape:zoom="16"
     inkscape:cx="25.71875"
     inkscape:cy="10.53125"
     inkscape:window-width="1907"
     inkscape:window-height="1280"
     inkscape:window-x="824"
     inkscape:window-y="742"
     inkscape:window-maximized="0"
     inkscape:current-layer="layer1"
     inkscape:showpageshadow="false"
     inkscape:deskcolor="#d1d1d1"
     inkscape:clip-to-page="false"
     labelstyle="default"><inkscape:grid
       id="grid2"
       units="px"
       originx="0"
       originy="1.8896486e-07"
       spacingx="0.26458333"
       spacingy="0.26458333"
       empcolor="#3f3fff"
       empopacity="0.25098039"
       color="#3f3fff"
       opacity="0.1254902"
       empspacing="4"
       dotted="false"
       gridanglex="30"
       gridanglez="30"
       visible="true" /></sodipodi:namedview><defs
     id="defs2" /><g
     inkscape:label="Layer 1"
     inkscape:groupmode="layer"
     id="layer1"
     transform="translate(42.670433,-86.060219)"><path
       id="rect1"
       style="fill:#ffffff;fill-opacity:1;stroke-width:0.264583;stroke-linecap:square"
       d="m -42.670433,86.060219 v 3.704166 h 7.408334 v -3.704166 z m 2.775405,1.035165 c 0.195337,0 0.354501,0.0631 0.477491,0.189308 0.122989,0.1254 0.184484,0.28577 0.184484,0.481107 v 0.284565 c 0,0.19614 -0.06149,0.356912 -0.184484,0.482313 -0.122186,0.125402 -0.28135,0.188102 -0.477491,0.188102 -0.128616,0 -0.242765,-0.02854 -0.342442,-0.08561 -0.09968,-0.05788 -0.176849,-0.137459 -0.23151,-0.238745 -0.05467,-0.10209 -0.08199,-0.217443 -0.08199,-0.34606 v -0.284565 c 0,-0.195337 0.06069,-0.355707 0.182073,-0.481107 0.121383,-0.126206 0.27934,-0.189308 0.473873,-0.189308 z m 2.117062,0 c 0.190514,0 0.340835,0.04985 0.450962,0.149516 0.110129,0.09968 0.163585,0.236334 0.16037,0.409967 l -0.0024,0.0072 H -37.4765 c 0,-0.215433 -0.102894,-0.323151 -0.308681,-0.323151 -0.09405,0 -0.169211,0.03819 -0.225481,0.11455 -0.05547,0.07556 -0.0832,0.174035 -0.0832,0.295417 v 0.315916 c 0,0.122988 0.02935,0.222668 0.08802,0.299033 0.05868,0.07556 0.137861,0.113344 0.237539,0.113344 0.09968,0 0.173232,-0.02613 0.220659,-0.07838 0.04743,-0.05225 0.07114,-0.13143 0.07114,-0.23754 h 0.305064 l 0.0012,0.006 c 0.0032,0.17122 -0.04863,0.306268 -0.155547,0.405143 -0.106109,0.09887 -0.25442,0.148311 -0.444935,0.148311 -0.190512,0 -0.344853,-0.06069 -0.46302,-0.182073 -0.118166,-0.121382 -0.17725,-0.27934 -0.17725,-0.473872 v -0.313504 c 0,-0.192926 0.05788,-0.350481 0.173633,-0.472668 0.115755,-0.122186 0.268891,-0.183279 0.459404,-0.183279 z m -4.265768,0.0205 h 0.335208 l 0.341237,1.159963 0.01929,0.08561 h 0.0072 l 0.01809,-0.08441 0.343647,-1.16117 h 0.334003 l -0.536571,1.579576 h -0.325561 z m 3.049132,0 h 0.315916 v 1.579576 h -0.315916 z m 2.104863,0 h 1.080382 v 0.243568 h -0.763261 v 0.396704 h 0.65474 v 0.244773 h -0.65474 v 0.450963 h 0.765672 v 0.243568 h -1.082793 z m -3.005289,0.226688 c -0.106912,0 -0.190514,0.03859 -0.250803,0.115754 -0.05949,0.07637 -0.08923,0.178055 -0.08923,0.305063 v 0.286977 c 0,0.127813 0.03015,0.230706 0.09043,0.308681 0.06109,0.07717 0.144694,0.115754 0.250803,0.115754 0.106913,0 0.190916,-0.03859 0.252009,-0.115754 0.0619,-0.07798 0.09285,-0.180868 0.09285,-0.308681 v -0.286978 c 0,-0.1254 -0.03095,-0.226687 -0.09285,-0.303857 -0.0619,-0.07797 -0.146301,-0.116961 -0.253215,-0.116961 z"
       sodipodi:nodetypes="cccccccsscsccssccccccccscsscscccccssssccccccccccccccccccccccccccccccccccsscscssccc" /><text
       xml:space="preserve"
       style="font-size:2.4807px;line-height:1.25;font-family:'Times New Roman';-inkscape-font-specification:'Times New Roman, ';letter-spacing:0px;word-spacing:0px;fill:#ffffff;fill-opacity:1;stroke-width:0.264583"
       x="-47.749607"
       y="79.398964"
       id="text1"
       transform="scale(0.85674803,1.1672043)"><tspan
         sodipodi:role="line"
         id="tspan1"
         style="font-style:normal;font-variant:normal;font-weight:bold;font-stretch:normal;font-size:2.4807px;font-family:Yantramanav;-inkscape-font-specification:'Yantramanav Bold';fill:#ffffff;fill-opacity:1;stroke-width:0.264583"
         x="-47.749607"
         y="79.398964"
         dx="-0.041524593 -0.05401963 0.25082186 -0.021431621 -0.048501723">EETER</tspan></text><text
       xml:space="preserve"
       style="font-size:9.525px;line-height:1.25;font-family:'Times New Roman';-inkscape-font-specification:'Times New Roman, ';letter-spacing:0px;word-spacing:0px;stroke-width:0.264583"
       x="-36.585018"
       y="99.81855"
       id="text2"><tspan
         sodipodi:role="line"
         id="tspan2"
         style="stroke-width:0.264583"
         x="-36.585018"
         y="99.81855" /></text><text
       xml:space="preserve"
       style="font-size:2.62805px;line-height:1.25;font-family:'Times New Roman';-inkscape-font-specification:'Times New Roman, ';letter-spacing:0px;word-spacing:0px;fill:#ffffff;fill-opacity:1;stroke-width:0.264583"
       x="-47.169067"
       y="84.115356"
       id="text3"
       transform="scale(0.9076399,1.1017585)"><tspan
         sodipodi:role="line"
         id="tspan3"
         style="font-style:normal;font-variant:normal;font-weight:bold;font-stretch:normal;font-size:2.62805px;font-family:Yantramanav;-inkscape-font-specification:'Yantramanav Bold';fill:#ffffff;fill-opacity:1;stroke-width:0.264583"
         x="-47.169067"
         y="84.115356"
         dx="0">M</tspan></text></g></svg>
